/* XPM */
static char *_3cf8cc06d644182e576a6d6f767e6fbdWEMBuUioGdMOW9V[] = {
/* columns rows colors chars-per-pixel */
"128 128 6 1 ",
"  c None",
". c #A10000",
"X c #A20000",
"o c #A30000",
"O c #A40000",
"+ c #A91010",
/* pixels */
"                                                                                                                                ",
"                                                                                                                                ",
"                                                                                                                                ",
"                                                                                                                                ",
"                                                                                                                                ",
"                                                                                                                                ",
"                                                                                                                                ",
"                                                                                                                                ",
"                                                                                                                                ",
"                                                                                                                                ",
"                                                                                                                                ",
"                                                                                                                                ",
"                                                                                                                                ",
"                                                                                                                                ",
"                  XX               X                                                                                            ",
"                 OX               O                                                                                             ",
"                OX               OX                                                                                             ",
"               OXX              XO                                                            XXXXXXXXXXXXXXXXXXXXXXXX          ",
"               XOO             OOX                                                           OXOXOXOXOXOXOXOXOXOXOXOXO          ",
"              OXX             XOXO                                                           OOXOXOXOXOXOXOXOXOXOXOXOX          ",
"             OXOO             XXOX                                                          OXOXXOXOXOXOXOXOXOXOXOXOXO          ",
"             OOXX             XOX                                                           OOXOOXOXOXOXOXOXOXOXOXOXOX          ",
"            OXXOO            OOXO                                                          OXOOXXXOOOOOOOOOOOOOOXOXOXO          ",
"            OXOXO            OXOX                                                          XOXXOXX              OXOXOX          ",
"            XOXOO            OXOO                                                         XOOXOXX               XOXOXO          ",
"           XOXOXO            OOXX                                                         OXXOXOX               OXOXOX          ",
"           OXOXOX            OXOO                                                        OXOOXXX                XOXOXO          ",
"           XOXOXO            XOXXO                                                       XOXXOXX                OXOXOX          ",
"           OXOXOXX           XXOOX                                                      OOXOXOO                 XOXOXO          ",
"           XOXOXOO            OXXO                                                      OXOXOXO                 OXOXOX          ",
"          XOXOXOXO            XOOXX                                                    OXOXOXX                  XOXOXO          ",
"          XXOXOXOXO           XXXOX                                                    OOXOXOO                  OXOXOX          ",
"          OXOXOXXOX           XOXOX                                                    OOXOXO        O          OXOXOX          ",
"          OXXOXOOXOX           XOXXO                                                  OXXOXOO        X          XOXOXO          ",
"          XOOXOXXOXO           XOXOX                                                  XOOXOX        OX          OXOXOX          ",
"          OXXOXOOXOXX           XOXOX                                                OOXXOXO        OO          XOXOXO          ",
"          OXOXOXXOXOO           XOXOXO                                               OXOOXO         OX          OXOXOX          ",
"          XOXOXOOXOXXX           XOXOX                                              XOOXXOO        OXO          XOXOXO          ",
"          OXOXOXXOOXOX           OXOXOX                                             OXOXOX         XOX          OXOXOX          ",
"          XOXOXO OXOXOO           OXOXOO                                           XXOXOXO        OOXO          XOXOXO          ",
"          OXOXOX OXOXOXO          XOXOXOO                                          XOXOXX         OXOX          OXOXOX          ",
"          XOXOXO  OXOXOXO          XOXOXX                                         OOXOXOO        OXOXO          XOXOXO          ",
"          OXOXOX   XXOXOXO          XOXOOX                                        OXXOOX         XOXOX          OXOXOX          ",
"          XOXOXO    OXOXXO           XOXXOO                                      OXOOXOO        OOXOXO          XOXOXO          ",
"          OXOXOX    XOXOOXO          XOOXOXO                                     XXOXOX         OXOXOX          OXOXOX          ",
"          XOXOXO     XOXXOOX          XXOXOO                                     XOXOXO        OXOXOXO          XOXOXO          ",
"          OXOXOX      XOXOXOO          OXOOXO                                   OOXOXO         XOXOXOX          OXOXOX          ",
"          XOXOXO       XOXOXXO         XOXXOXO                                  OXOXOO        OXXOXOXO          XOXOXO          ",
"          OXOXOX       OXOXOXO          XXOXOXO                                OOXOXO         XOOXOXOX          OXOXOX          ",
"          XOXOXO        OXOXOXO          XXOXOX                                XXOXOO        OOXXOXOXO          XOXOXO          ",
"          OXOXOX         XXOXOXO          XOOXOO                              OOOXOX         OXOOXOXOX          OXOXOX          ",
"          XOXOXO          OXOXOXO         OXXOXOO                             OXXOXO        OXOXXOXOXO          XOXOXO          ",
"          OXOXOX          XOXOXOX          XOXOXX                            OXOOXO         XOXOOXOXOX          OXOXOX          ",
"          XOXOXO          OXOXOXOO          XOXOOO                           XOXXOO        OOXOXXOXOXO          XOXOXO          ",
"          OXOXOX          XOXOXOXOX         OXOXXOO                         OOXOOX         OXOXOOXOXOX          OXOXOX          ",
"          XOXOXO          OXOXOXOXO          OXOOXXO                        XXOXXO        OXOXOXXOXOXO          XOXOXO          ",
"          OXOXOX          XOXOXOXOXO          XXXOXO                       OXOXOO         OXOXOXXOXOXO          OXOXOX          ",
"          XOXOXO          OXOXOXOXOXO          OOXOXX                      OOXOXO         OOXOXOXXOXOX          XOXOXO          ",
"          OXOXOX          XOXOXOXOXOXO         XXOXOXO                     XXOXO         OOXOXX XXXOXO          OXOXOX          ",
"          XOXOXO          OXOXOXOXOXOX          XXOXOXO                   OOOXOX         XXOXOO XXOXOX          XOXOXO          ",
"          OXOXOX          XOXOXOXXOXOXO          XOXOXO                   XOXOX         OOXOXO  XOXOXO          OXOXOX          ",
"          XOXOXO          OXOXOX XXOXOXO          XOXOXO                 OOXOXO         OXOXOO  XXOXOX          XOXOXO          ",
"          OXOXOX          XOXOXO  OXOXOX          OXOXOXO                XXOXO         OXOXOX   XXXOXO          OXOXOX          ",
"          XOXOXO          OXOXOX   XXOXOO          XXOXOOO              OOOXOX         XOXOXX   XXOXOX          XOXOXO          ",
"          OXOXOX          OXOXOX    OXOXOX          XOXOOX              OXOXO         OOXOXO    XXXOXO          OXOXOX          ",
"          XOXOXO          XOXOXO    XOXOXXX         OXOXXOX            XXOXOX         XOOXXX    XXOXOX          XOXOXO          ",
"          OXOXOX          OXOXOX     XOXOXO          XXOOXXO           OOXOX         XOXXOO     XXXOXO          OXOXOX          ",
"          XOXOXO          XOXOXO      XOXOXO          XOXOOX          OXXOXO         OXOOXX     XXOXOX          XOXOXO          ",
"          OXOXOX          OXOXOX      XXOXOXX          XOXOXO         XOXOO         XOXOXOX     XOXOXO          OXOXOX          ",
"          XOXOXO          XOXOXO       OXOXOO          OXOXOXO       OOXOXX         OXOXOX      XXOXOX          XOXOXO          ",
"          OXOXOX          OXOXOX        XXOXXO          XXOXXOO      OXOXO         OXOXOXO      XXXOXO          OXOXOX          ",
"          XOXOXO          XOXOXO        OOXOOXX          OXOOXO      XOXXX         XOXOXO       XXOXOX          XOXOXO          ",
"          OXOXOX          OXOXOX         OXOXOX           XOXOXO    OXOXO         OXOXXOO       XXXXOX          OXOXOX          ",
"          XOXOXO          XOXOXO          OXOXOX          OXOXOXX   OOXOX         XOXOOX        .XXOXO          XOXOXO          ",
"          OXOXOX          OXOXOX          XOXOXO           XXOXOX  OXOOX         OOXOXOO        XXOXOX          OXOXOX          ",
"          XOXOXO          XOXOXO           XOXOXO           OXOXXO XOXXX         OXOXOX         XOXOXO          XOXOXO          ",
"          OXOXOX          OXOXOX            OXOXOO          XOOXOXOXOXO         OXOXOXX         XXOXOX          OXOXOX          ",
"          XOXOXO          XOXOXO            XOXOXX           XXOXOXOXOX         OOXOXO          XXXOXO          XOXOXO          ",
"          OXOXOX          OXOXOX             OOXOXO          OOXOXOXOX          OXOXOX          XXXXOX          OXOXOX          ",
"          XOXOXO          XOXOXO             XXOXOX           XXXOXOXX         OXOXOX           XXXOXO          XOXOXO          ",
"          OXOXOX          OXOXOX              XOXOXO           OOXOXO          XOXXOX           XOXOXO          OXOXOX          ",
"          XOXOXO          XOXOXO              OXOXOX           XXOXOX         OOXOOXO           XXOXOX          XOXOXO          ",
"          OXOXOX          OXOXOO               XXOXOO           OXOXX         OXOXOO            XXXOXO          OXOXOX          ",
"          XOXOXO          XOXOXO               XOXOXO           XOXOOO       OXOXOXO            XXOXOX          XOXOXO          ",
"          OXOXOX          OXOXXO                XOXOXX           XXOX+       OXOOXO             XXXXXO          OXOXOX          ",
"          XOXOXO          XOXOOO                 XOXOO           XOXOX      OXOXXOX             .XXOOX          XOXOXO          ",
"          OXOXOX          OXOXOO                 XXOXO           OXOOXX     XOXOOX              XXOXXO          OXOXOX          ",
"          XOXOXO          XOXOXO                  OXOX            XOXOO    XOXOXOX              XOXOOX          XOXOXO          ",
"          OXOXOX          OXOXOO                  XOXOX           XXXOX    XXOXOX               XXOXOX          OXOXOX          ",
"          XOXOXO          XOXOXO                  XXOXX            XOXO   XOOXOXX               XXXOXO          XOXOXO          ",
"          OXOXOX          OXOXXO                   XXOO            XXOX   OXXOXO                XXXXOX          OXOXOX          ",
"          XOXOXO          XOXOOO                   OOXO            OOXOX OXOOXOX                XXXOXO          XOXOXO          ",
"          OXOXOX          OXOXOO                   XOXO            XXXXX OOXOXXO                XXOXOX          OXOXOX          ",
"          XOXOXO          XOXOXO                   XXOX            XXOOXOXXOXOO                 XOXOXO          XXXOXO          ",
"          OXOXOX          OXOXOO                   OOXO             OXOOOXOXOXO                 XXOXOX          XXOXOX          ",
"          XOXOXO          XOXOXO                   OXOX             XOXOXOXOXO                  XXXOXO          XOXOXO          ",
"          OXOXOX          OXOXOO                   XOX             XXOXOXOXOXO                  XXOXOX          XXOXOX          ",
"          XOXOXO          XOXOXO                   OXO             XOXOXOXOXO                   XXXOXO          XXXOXO          ",
"          OXOXOX          OXOXOO                   XOX             OXOXOXOXOX                   XXXXOX          XXOXOX          ",
"          XOXOXO          XOXOXO                  XOX              XOXOXOXOX                    XXXOXO          XOXOXO          ",
"          OXOXOX          XOOXOO                  XOO              XXOXOXXOX                    XXOXOX          XXOXOX          ",
"          XOXOXO          OXXOOX                  OXX             XOXOXXXOX                     XOXOXO          XXXOXO          ",
"          OXOXOX          XOXOXO                 OOX              OX                            XXOXOX          XXXXOX          ",
"          XOXOXO          OXOXOX                 XX              OXO                            XXXOXOO         XXXOXO          ",
"          OXOXOX       XXOXOXOXO                OOX              OX                             XXXXXOXOXO      XXOXOO          ",
"          XOXOXO    OXOOOXOXOXOX                OX              OX                              XXXOOXOXOXOXX   XOXOXO          ",
"          OXOXOXOOXOXOOXXOXOXOXO               XX               X                               XXOXXOXOXOXOXOXOOXOXOO          ",
"          XOXOXOOXOXOXXOOXOXOXOX              OX               O                                XOXOOXOXOXOXOXOOOXXOXO          ",
"          OXOXOXXOXOOXOXXOOXXO                                                                   XXXOXXOXOOXOXOXXOXOXO          ",
"          XOXOXOOXOXXOXOOXX                                                                         OXOXOXXOXOXOOXOXOO          ",
"          OXOXOXOXXOOXXX                                                                                XOXXOXOXXOXOXO          ",
"          XOXOXOXOXXX                                                                                      OXOXOOXOXOO          ",
"          XOOXOXOO                                                                                            XXXXOXOO          ",
"          OXXOX                                                                                                  OXOXO          ",
"          O                                                                                                          X          ",
"                                                                                                                                ",
"                                                                                                                                ",
"                                                                                                                                ",
"                                                                                                                                ",
"                                                                                                                                ",
"                                                                                                                                ",
"                                                                                                                                ",
"                                                                                                                                ",
"                                                                                                                                ",
"                                                                                                                                ",
"                                                                                                                                ",
"                                                                                                                                ",
"                                                                                                                                "
};
