/* XPM */
static char *_34e29c393de40dcd7de09431b42e80aQX4j5nOYHyyZ1MnI[] = {
/* columns rows colors chars-per-pixel */
"32 32 5 1 ",
"  c None",
". c #A10000",
"X c #A20000",
"o c #A30000",
"O c #A40000",
/* pixels */
"                                ",
"                                ",
"                                ",
"                                ",
"        o               ooooo   ",
"   O   O               ooooooo  ",
"   o   o              Oo    oo  ",
"   oo  oo             oO    oo  ",
"  ooo   o            Oo     Oo  ",
"  oooO  oo           OO  o  Oo  ",
"  .o o   o           o  o.  oo  ",
"  .o oo   o         OO  oo  oo  ",
"  .o  oo  oO        o  ooo  oo  ",
"  .o  .oO  oO      OO  ooo  oo  ",
"  oo  ooo   o      o  ooo.  oo  ",
"  oo  oooo  oo    oO  o o.  oo  ",
"  .o  .o oo  oO   o  Oo Oo  Oo  ",
"  .o  .o  o   oO OO  o  oo  Oo  ",
"  oo  .o  oo   o o  Oo  oo  oo  ",
"  oo  .o   oO  ooO  oO  oo  oo  ",
"  oo  oo    o   o  Oo   oo  oo  ",
"  oo  oo    oo  oo OO   oo  oo  ",
"  .o  oo     o   O o    Oo  oo  ",
"  .o  oo     o   OOo    oo  oo  ",
"  .o  oo     o   oo     oo  Oo  ",
"  .o  oo    o           oo  Oo  ",
"  oo ooo                OoOOoo  ",
"  ooooo                  ooooo  ",
"                                ",
"                                ",
"                                ",
"                                "
};
