/* XPM */
static char *_403bdbe02e04bd1b86cb242d243d37cG2hPOGY7GWv2VeeP[] = {
/* columns rows colors chars-per-pixel */
"64 64 5 1 ",
"  c None",
". c #A10000",
"X c #A20000",
"o c #A30000",
"O c #A40000",
/* pixels */
"                                                                ",
"                                                                ",
"                                                                ",
"                                                                ",
"                                                                ",
"                                                                ",
"                                                                ",
"         .       O                                              ",
"        .       O                                               ",
"       OO      OO                             OO.OO.O.OO.OO     ",
"       O.      OO                             OOOOOOO.O.OO.     ",
"      O..      ..                            O...........OO     ",
"      OO.     .O.                            OOO        OOO     ",
"      .O.      OO                            .O.        OO.     ",
"     OO.O      .O                           O.O         O.O     ",
"     .OOO      O.                           OO.         OO.     ",
"     .O..O     OO.                         OOO          OO.     ",
"     OOOOO      OO                         OO.    O     O.O     ",
"     O.OO.O     .O.                       O..     O     OO.     ",
"     O.OO.O      OOO                      OO.    O.     OOO     ",
"     OO. .O.     OOOO                    O.O     OO     O..     ",
"     .OO  OOO     ...                    OO.    OO.     OOO     ",
"     O.O  .OOO     O.O                  O.O     ..O     OOO     ",
"     O.O   O.OO     OOO                 OO.    .OOO     OOO     ",
"     OOO    .OO     OO.                OOO     OO..     O.O     ",
"     ..O     .O.     .OO               OO.    OOOOO     OO.     ",
"     OOO     OOOO     .OO              OO     ...OO     O.O     ",
"     O..     O...O    OO.O            O..    OOO.OO     OOO     ",
"     .OO     .OOOO     .OO            OO.    OOOOOO     OOO     ",
"     O.O     O.OO.O     ..O          OO.    OO. O..     O.O     ",
"     .OO     .OOOOOO     OOO         O..    .O. OOO     OO.     ",
"     OO.     OO. ..O     O.OO       OO.    O.O. ..O     O.O     ",
"     OOO     OOO  .OO     .O.       .O.    .OO  OO.     OO.     ",
"     O..     O..   O.O     OOO     OO.     O.O  .OO     O.O     ",
"     .OO     .OO   OOO     .O.O    OO.    O.O   .OO     OO.     ",
"     O.O     O.O    ...     OO.   O..     OOO   OO.     OOO     ",
"     .OO     .OO     OOO     .OO  .O.    OOO    O.O     O..     ",
"     OO.     OO.     ..O      .OOOOO     .O.    OO.     OOO     ",
"     OO.     OO.      .OO     OO.O.O    OO.     ..O     OOO     ",
"     .OO     .OO      OO..     ..OO     OO.     OOO     OOO     ",
"     .OO     O.O       .O.     OOOO    OOO      O..     O.O     ",
"     OO.     .OO        O..     .O.    O..      OOO     OO.     ",
"     OO.     O..        OOO     OOO   OOO       .OO     O.O     ",
"     .OO     OOO         .O      .O   .OO       .OO     OOO     ",
"     .OO     OOO         .O      ..O OO.O       OOO     OOO     ",
"     OO.     O..         ..       O. .O.        O..     O.O     ",
"     OO.     .OO         .O       OOO.OO        OOO     OO.     ",
"     .OO     OOO         .O       O.OOO         ..O     O.O     ",
"     .OO     .OO         .O       O..O.         OOO     OO.     ",
"     OO.     OOO         O.       OOOO          O..     O.O     ",
"     OO.     ..O         O       ..OOO          OOO     OO.     ",
"     .OO     OOO        O.       .              ..O     OOO     ",
"     O.O   OOOOO        .       O               OOO.OO  O..     ",
"     .OOO.O.O..O       O                        O.O.OOOOOOO     ",
"     O..OOOOOO                                   O.O.O..O.O     ",
"     OOOO..                                          OOOOOO     ",
"     O.O                                                .OO     ",
"                                                                ",
"                                                                ",
"                                                                ",
"                                                                ",
"                                                                ",
"                                                                ",
"                                                                "
};
